<svg width="561" height="152" viewBox="0 0 561 152" fill="none" xmlns="http://www.w3.org/2000/svg">
<path d="M167.301 88.32H168.141C170.301 78.48 172.461 68.68 174.621 58.92C176.861 49.08 179.061 39.24 181.221 29.4H198.381V111H186.621V57.96H185.901C183.981 66.84 181.981 75.72 179.901 84.6C177.821 93.4 175.861 102.2 174.021 111L160.941 111.12L149.781 58.08H148.941V111H137.061V29.4H154.221L167.301 88.32ZM209.717 29.28H224.957V111H209.717V29.28ZM251.779 57.48V111H237.139V29.28H251.779L279.499 83.28V29.28H293.779V111H279.499L251.779 57.48ZM304.991 29.28H320.231V111H304.991V29.28ZM390.945 111H377.505L359.025 49.92H372.345L384.105 88.68L395.505 49.92H408.945L390.945 111ZM415.211 71.64C415.211 68.68 415.771 65.92 416.891 63.36C418.011 60.72 419.491 58.4 421.331 56.4C423.171 54.4 425.291 52.84 427.691 51.72C430.091 50.52 432.491 49.92 434.891 49.92H448.571C451.691 49.92 454.451 50.6 456.851 51.96C459.331 53.24 461.371 54.92 462.971 57C464.651 59 465.931 61.28 466.811 63.84C467.771 66.32 468.251 68.76 468.251 71.16V86.64H429.371V89.88C429.371 92.76 430.171 94.8 431.771 96C433.371 97.2 435.491 97.8 438.131 97.8H466.091V111.24H435.011C432.291 111.24 429.731 110.72 427.331 109.68C424.931 108.56 422.811 107.08 420.971 105.24C419.211 103.4 417.811 101.2 416.771 98.64C415.731 96.08 415.211 93.28 415.211 90.24V71.64ZM429.491 75.24H454.331V74.64C454.331 71.52 453.531 68.96 451.931 66.96C450.331 64.88 448.171 63.84 445.451 63.84H438.011C436.731 63.84 435.571 64.16 434.531 64.8C433.491 65.36 432.611 66.12 431.891 67.08C431.171 68.04 430.571 69.2 430.091 70.56C429.691 71.84 429.491 73.2 429.491 74.64V75.24ZM492.234 62.4C493.354 60.56 494.834 58.96 496.674 57.6C498.594 56.16 500.674 54.96 502.914 54C505.234 53.04 507.674 52.32 510.234 51.84C512.794 51.36 515.354 51.12 517.914 51.12H519.474V66H517.914C515.034 66 512.074 66.6 509.034 67.8C505.994 68.92 503.194 70.44 500.634 72.36C498.154 74.2 496.114 76.28 494.514 78.6C492.994 80.92 492.234 83.24 492.234 85.56V111H477.354V49.44H492.234V62.4Z" fill="black"/>
<circle cx="339" cy="107" r="7" fill="#29B8B5"/>
<path d="M57.3254 115.5L99.1724 43.019L99.5649 43.2456C104.028 45.8224 109.735 44.2932 112.312 39.8301C114.888 35.3671 113.359 29.6602 108.896 27.0834L70.0674 4.66563C65.6044 2.08887 59.8975 3.61803 57.3207 8.08111C54.7439 12.5442 56.2731 18.2511 60.7362 20.8278L61.7329 21.4033L19.8859 93.8846C13.9168 104.223 17.4591 117.443 27.7977 123.412C38.1364 129.381 51.3563 125.839 57.3254 115.5Z" fill="#D9F1F1"/>
<path d="M50.6426 113.326L86.4926 53.4215L44.4927 53.9146L20.5349 95.6841C15.7667 103.997 18.5957 114.6 26.8714 119.433C35.1299 124.256 45.7315 121.532 50.6426 113.326Z" fill="#30908E"/>
<path d="M78.9999 53.4886L43.3617 53.953L19.1158 97.8987C14.9928 105.372 18.3314 114.768 26.2452 117.964C32.668 120.557 40.0255 118.149 43.6707 112.259L58.9999 87.4887L78.9999 53.4886Z" fill="#29B8B5"/>
<path d="M89.8014 16.094L107.491 26.3682C111.948 28.9565 113.424 34.7332 110.836 39.1896V39.1896C108.289 43.5739 102.633 45.1286 98.249 42.5822V42.5822L55.5446 116.109C49.9192 125.795 37.507 129.087 27.8213 123.461V123.461C18.1356 117.836 14.8441 105.424 20.4695 95.738L63.174 22.2107L62.7616 21.9712C58.2924 19.3755 56.7736 13.6482 59.3693 9.17904V9.17904C61.9545 4.72798 67.6491 3.20033 72.1149 5.75987L75.9019 7.93032" stroke="black" stroke-width="4.19" stroke-linecap="round"/>
<path d="M67.1197 42.5525C68.0356 43.0813 69.2068 42.7675 69.7356 41.8516C70.2644 40.9356 69.9506 39.7645 69.0347 39.2356L67.1197 42.5525ZM56.2088 36.2531L67.1197 42.5525L69.0347 39.2356L58.1238 32.9362L56.2088 36.2531Z" fill="black" fill-opacity="0.5"/>
<path d="M59.0518 56.5056C59.9677 57.0345 61.1389 56.7206 61.6677 55.8047C62.1965 54.8888 61.8827 53.7176 60.9668 53.1888L59.0518 56.5056ZM48.1409 50.2062L59.0518 56.5056L60.9668 53.1888L50.0559 46.8894L48.1409 50.2062Z" fill="black" fill-opacity="0.5"/>
<path d="M50.9837 70.4937C51.8996 71.0225 53.0708 70.7087 53.5996 69.7928C54.1284 68.8768 53.8146 67.7056 52.8987 67.1768L50.9837 70.4937ZM40.0728 64.1943L50.9837 70.4937L52.8987 67.1768L41.9878 60.8774L40.0728 64.1943Z" fill="black" fill-opacity="0.5"/>
<path d="M42.9158 84.4293C43.8317 84.9582 45.0029 84.6443 45.5317 83.7284C46.0606 82.8125 45.7467 81.6413 44.8308 81.1125L42.9158 84.4293ZM32.0049 78.1299L42.9158 84.4293L44.8308 81.1125L33.9199 74.8131L32.0049 78.1299Z" fill="black" fill-opacity="0.5"/>
<path d="M34.8477 98.3999C35.7636 98.9287 36.9348 98.6149 37.4636 97.699C37.9924 96.7831 37.6786 95.6119 36.7627 95.0831L34.8477 98.3999ZM23.9368 92.1005L34.8477 98.3999L36.7627 95.0831L25.8518 88.7836L23.9368 92.1005Z" fill="black" fill-opacity="0.5"/>
<circle cx="50" cy="105" r="7" fill="#D9F1F1"/>
<circle cx="54.5" cy="90.5" r="3.5" fill="#D9F1F1"/>
</svg>
